# xmcd
#
# Track frame offsets:
#	150
#	14745
#	28089
#	42338
#	58947
#	72001
#	86639
#	104079
#	120479
#	132789
#	143991
#	152853
#	163682
#	179350
#	191274
#	206902
#	219467
#	231802
#	244215
#	259469
#	273021
#
# Disc length: 3885 seconds
#
# Revision: 0
# Processed by: cddbd v1.5.2PL0 Copyright (c) Steve Scherf et al.
# Submitted via: EZCDAudioConverter 7.1.0.1
#
DISCID=3e0f2b15
DTITLE=Hott Urban Volume 54 CAN
DYEAR=2019
DGENRE=blues
TTITLE0=Alicia Keys ft. Miguel - Show Me Love
TTITLE1=Travis Scott - Highest In The Room
TTITLE2=City Girls - JT First Day Out
TTITLE3=Yella Beezy ft. Chris Brown - Restroom Occupied
TTITLE4=Fabolous ft. Jeremih and Davido - Choosy
TTITLE5=Young Thug ft. Gunna - Hot
TTITLE6=Burna Boy - Ye
TTITLE7=SiR ft. Kendrick Lamar - Hair Down
TTITLE8=Lil Durk - Bora Bora
TTITLE9=NLE Choppa - Camelot
TTITLE10=Lil Tecca - Did It Again
TTITLE11=Summer Walker - Playing Games
TTITLE12=YK Osiris ft. Kehlani - Ride
TTITLE13=A Boogie Wit Da Hoodie - Mood Swings
TTITLE14=Polo G - Through Da Storm
TTITLE15=Calboy ft. Meek Mill and Lil Durk - Chariot
TTITLE16=Jacquees ft. Young Thug and Gunna - Verify
TTITLE17=Tank - I Don't Think You're Ready
TTITLE18=French Montana ft. Post Malone , Cardi B and Rvssian - Writing On The
TTITLE18=Wall
TTITLE19=24KGoldn - Valentino
TTITLE20=Johnny Gill ft. Ralph Tresvant - Perfect
EXTD=
EXTT0=
EXTT1=
EXTT2=
EXTT3=
EXTT4=
EXTT5=
EXTT6=
EXTT7=
EXTT8=
EXTT9=
EXTT10=
EXTT11=
EXTT12=
EXTT13=
EXTT14=
EXTT15=
EXTT16=
EXTT17=
EXTT18=
EXTT19=
EXTT20=
PLAYORDER=
